<?xml version="1.0" encoding="UTF-8" standalone="no"?>
<svg
   xmlns:dc="http://purl.org/dc/elements/1.1/"
   xmlns:cc="http://creativecommons.org/ns#"
   xmlns:rdf="http://www.w3.org/1999/02/22-rdf-syntax-ns#"
   xmlns:svg="http://www.w3.org/2000/svg"
   xmlns="http://www.w3.org/2000/svg"
   id="svg41"
   version="1.2"
   viewBox="0 0 76 42"
   height="56"
   width="76">
  <metadata
     id="metadata45">
    <rdf:RDF>
      <cc:Work
         rdf:about="">
        <dc:format>image/svg+xml</dc:format>
        <dc:type
           rdf:resource="http://purl.org/dc/dcmitype/StillImage" />
        <dc:title></dc:title>
      </cc:Work>
    </rdf:RDF>
  </metadata>
  <defs
     id="defs8">
    <clipPath
       id="clip1">
      <path
         id="path2"
         d="m 657,355.88281 h 64.07812 V 409 H 657 Z m 0,0" />
    </clipPath>
    <clipPath
       id="clip2">
      <path
         id="path5"
         d="m 644.58594,408 h 76.49218 v 3.85156 h -76.49218 z m 0,0" />
    </clipPath>
  </defs>
  <g
     transform="matrix(0.99356562,0,0,0.99356562,-640.43843,-360.20155)"
     id="surface835">
    <g
       style="clip-rule:nonzero"
       id="g12"
       clip-path="url(#clip1)">
      <path
         id="path10"
         d="m 721.08203,355.88281 h -13.39844 c -2.98437,0 -5.08593,1.4336 -6.39453,2.78516 -1.30859,1.34765 -37.51562,42.79687 -42.64062,48.3789 -0.52344,0.57032 -1.05078,1.07422 -1.57813,1.51954 h 64.01172 z m 0,0"
         style="fill:#ffffff;fill-opacity:1;fill-rule:nonzero;stroke:none" />
    </g>
    <g
       style="clip-rule:nonzero"
       id="g16"
       clip-path="url(#clip2)">
      <path
         id="path14"
         d="m 644.58594,411.85156 76.49218,-0.004 v -3.28125 h -64.00781 c -4.60156,3.88671 -9.15234,3.16406 -12.48437,3.28515"
         style="fill:#003d70;fill-opacity:1;fill-rule:nonzero;stroke:none" />
    </g>
    <path
       id="path18"
       d="m 713.05078,397.03125 -0.004,0.004 c 0.67579,0.67578 1.11719,1.58984 1.1875,2.61718 0.16016,2.26953 -1.55078,4.23438 -3.82031,4.39453 -1.0625,0.0742 -2.0625,-0.26562 -2.83984,-0.8789 l -0.004,0.004 c 0.80469,0.75391 1.91016,1.17969 3.09375,1.09375 2.26953,-0.15625 3.97656,-2.125 3.82031,-4.38671 -0.082,-1.14844 -0.62109,-2.15625 -1.43359,-2.84766"
       style="fill:#002675;fill-opacity:1;fill-rule:nonzero;stroke:none" />
    <path
       id="path20"
       d="m 705.75391,401.71484 c -0.12891,0.0703 -0.16016,0.1836 -0.0899,0.35157 0.0625,0.15625 0.15625,0.22265 0.26172,0.17968 0.082,-0.0312 0.0977,-0.10547 0.0625,-0.29297 l -0.0156,-0.0703 c -0.0312,-0.18359 -0.0391,-0.26172 -0.0195,-0.33984 0.0273,-0.0899 0.0742,-0.14453 0.15235,-0.17578 0.18359,-0.0742 0.36328,0.0391 0.46484,0.30468 0.11719,0.27735 0.0508,0.49219 -0.16797,0.58204 l -0.0508,-0.13672 c 0.15235,-0.0664 0.1875,-0.21094 0.10547,-0.41407 -0.0664,-0.16796 -0.17578,-0.24218 -0.28125,-0.19531 -0.0937,0.0352 -0.11328,0.11719 -0.082,0.3086 l 0.0156,0.082 0.0117,0.0703 c 0.0234,0.14062 0.0274,0.1875 0.0117,0.25 -0.0195,0.0742 -0.0664,0.12891 -0.14453,0.16016 -0.17187,0.0703 -0.33984,-0.0312 -0.4375,-0.26954 -0.10156,-0.2539 -0.043,-0.44531 0.14844,-0.53515 z m 0,0"
       style="fill:#002675;fill-opacity:1;fill-rule:nonzero;stroke:none" />
    <path
       id="path22"
       d="m 705.64062,400.22656 0.625,-0.52344 0.004,0.19141 -0.52734,0.4375 0.16797,0.19141 0.375,-0.008 v 0.15235 l -1.0625,0.0234 -0.004,-0.15235 0.41797,-0.008 h 0.0586 l 0.0547,-0.004 -0.0742,-0.0742 -0.46875,-0.50781 -0.004,-0.19922 z m 0,0"
       style="fill:#002675;fill-opacity:1;fill-rule:nonzero;stroke:none" />
    <path
       id="path24"
       d="m 706.10937,398.58203 0.41016,0.14453 -0.0547,0.14453 -0.40625,-0.14453 -0.73437,0.22266 0.0625,-0.17969 0.45312,-0.125 0.0586,-0.0156 c 0.0234,-0.008 0.0351,-0.0117 0.0742,-0.0195 -0.0352,-0.043 -0.043,-0.0508 -0.0781,-0.10156 l -0.28125,-0.3789 0.0586,-0.16797 z m 0,0"
       style="fill:#002675;fill-opacity:1;fill-rule:nonzero;stroke:none" />
    <path
       id="path26"
       d="m 706.82812,396.63281 -0.22656,0.27344 0.67188,0.54687 -0.16016,0.19922 -0.67187,-0.55078 -0.22266,0.27344 -0.15234,-0.125 0.60937,-0.74219 z m 0,0"
       style="fill:#002675;fill-opacity:1;fill-rule:nonzero;stroke:none" />
    <path
       id="path28"
       d="m 708.26172,395.625 -0.53516,0.3125 0.11328,0.19922 0.48828,-0.28906 0.0937,0.16015 -0.49218,0.28516 0.13281,0.22265 0.54687,-0.32031 0.0977,0.17188 -0.76562,0.44531 -0.53516,-0.91406 0.75391,-0.44141 z m 0,0"
       style="fill:#002675;fill-opacity:1;fill-rule:nonzero;stroke:none" />
    <path
       id="path30"
       d="m 709.70703,395.49219 c -0.0586,-0.0977 -0.082,-0.14063 -0.11328,-0.21875 -0.008,0.0781 -0.0195,0.13281 -0.043,0.24218 l -0.0469,0.20313 0.30859,-0.0508 z m 0.60547,0.54687 -0.27734,0.0156 -0.13672,-0.22657 -0.42578,0.0664 -0.0625,0.25781 -0.26172,0.0703 0.27734,-1.16016 0.26172,-0.0391 z m 0,0"
       style="fill:#002675;fill-opacity:1;fill-rule:nonzero;stroke:none" />
    <path
       id="path32"
       d="m 712.02344,396.375 -0.22657,-0.082 0.0859,-0.3125 c 0.008,-0.0391 0.0195,-0.0899 0.043,-0.15625 0.0156,-0.0664 0.0312,-0.1211 0.043,-0.15625 0.0117,-0.043 0.0273,-0.0859 0.0391,-0.13281 l 0.0274,-0.0742 c -0.0625,0.10547 -0.0899,0.14453 -0.14844,0.23047 -0.0234,0.0391 -0.0469,0.0703 -0.0625,0.0976 l -0.30078,0.42188 -0.19532,-0.0508 -0.0586,-0.50782 c -0.004,-0.0273 -0.008,-0.0625 -0.0117,-0.11328 0,-0.0664 -0.004,-0.11719 -0.008,-0.15234 -0.004,-0.0234 -0.004,-0.0703 0,-0.12891 l -0.0273,0.12891 c -0.0312,0.14062 -0.0469,0.19922 -0.0899,0.36719 l -0.0859,0.34375 -0.23828,-0.0391 0.26953,-1.03515 0.35547,0.0664 0.0508,0.49219 c 0.0117,0.11328 0.0156,0.21094 0.0117,0.34766 0.0391,-0.0781 0.0547,-0.10547 0.0977,-0.17578 0.0312,-0.0508 0.0586,-0.0899 0.0859,-0.125 l 0.27734,-0.39844 0.33594,0.11328 z m 0,0"
       style="fill:#002675;fill-opacity:1;fill-rule:nonzero;stroke:none" />
    <path
       id="path34"
       d="m 711.99609,399.80469 c 0.30469,-0.20703 0.5625,-0.31641 0.71875,-0.3086 0.0937,0 0.20703,0.0312 0.20703,0.14844 0,0.11719 -0.11328,0.21875 -0.33593,0.29688 -0.19532,0.0664 -0.49219,0.0859 -0.82032,0.0508 0.0898,-0.082 0.16797,-0.14453 0.23047,-0.1875 m -4.30859,0.3789 c -0.1875,-0.0117 -0.28125,-0.0898 -0.28125,-0.23828 0,-0.0156 0.0117,-0.48437 1.07812,-0.53515 0.1211,-0.008 0.25391,-0.0117 0.46094,0.0117 -0.008,0 -0.12109,0.10547 -0.12109,0.10547 l -0.0664,0.0586 c -0.2539,0.23437 -0.6875,0.625 -1.07031,0.59765 m 2.30469,-1.76172 c -0.13282,0.11329 -0.38672,0.35938 -0.62891,0.59766 l -0.28125,0.26563 c -0.23047,-0.0391 -0.45312,-0.0625 -0.68359,-0.0625 -0.51953,0 -0.99219,0.14453 -1.21094,0.36718 -0.082,0.0859 -0.12109,0.17578 -0.11719,0.27344 0.004,0.25 0.28906,0.375 0.37891,0.41016 0.45703,0.16797 0.84375,0.12109 1.24609,-0.16407 0.22656,-0.15625 0.4961,-0.40625 0.70313,-0.60937 0.16406,0.0352 0.35156,0.0859 0.54687,0.14453 l 0.1875,0.0547 c -0.23828,0.23437 -0.48437,0.48047 -0.71094,0.67969 l -0.0195,0.0156 c -0.3125,0.27734 -0.54297,0.48047 -0.87109,0.55469 -0.23047,0.0508 -0.39453,0 -0.44922,-0.0312 -0.008,0 -0.0117,0.0117 -0.0117,0.0117 0.19141,0.15625 0.3711,0.24218 0.67969,0.21875 0.29687,-0.0274 0.64062,-0.21485 0.98828,-0.53907 l 0.46875,-0.46484 0.33203,-0.32812 c 0,0.004 0.66797,0.19531 0.66797,0.19531 0.008,0.004 0.0117,0.004 0.0117,0.004 -0.004,0 -0.41016,0.40235 -0.41016,0.40235 l -0.35937,0.35547 c -0.36328,0.35156 -0.5586,0.53515 -0.76953,0.68359 -0.35547,0.25 -0.65625,0.37891 -0.91797,0.39844 -0.13672,0.008 -0.33594,0 -0.5,-0.0977 -0.0117,-0.004 -0.0195,0.008 -0.0195,0.008 0.17968,0.15235 0.39843,0.33594 0.77734,0.32422 0.42969,-0.008 0.80859,-0.21484 1.39844,-0.75781 0.26953,-0.24609 0.53906,-0.52344 0.77344,-0.76562 l 0.4375,-0.44922 c 0.28906,0.0664 0.54687,0.0937 0.83203,0.0859 0.41797,-0.008 0.77343,-0.20703 0.77734,-0.43359 0.004,-0.17187 -0.13281,-0.26172 -0.21875,-0.3125 -0.0664,-0.0469 -0.25391,-0.14844 -0.50781,-0.14844 -0.3125,0 -0.63672,0.13672 -0.96875,0.40625 l -0.21875,0.19532 c 0,0 -0.082,-0.0195 -0.082,-0.0195 l -0.60938,-0.17578 c 0.17969,-0.16797 0.33203,-0.30859 0.46875,-0.43359 0.33594,-0.29688 0.70703,-0.42188 0.92188,-0.43359 0.15625,-0.0117 0.43359,0.004 0.54297,0.082 0.008,0 0.0156,-0.0117 0.0156,-0.0117 -0.30078,-0.25391 -0.5625,-0.28906 -0.77344,-0.28906 -0.21484,0 -0.55078,0.0664 -0.96875,0.38671 -0.16797,0.13282 -0.39062,0.35157 -0.61718,0.58594 0,-0.004 -0.3086,-0.0976 -0.3086,-0.0976 l -0.0742,-0.0195 -0.32812,-0.10156 c 0.008,0 0.1875,-0.17187 0.1875,-0.17187 0.21875,-0.21875 0.42578,-0.42188 0.58594,-0.5586 0.58593,-0.48828 0.95312,-0.55468 1.21093,-0.55859 0.28125,0 0.50391,0.0586 0.66407,0.17578 0.004,-0.004 0.0117,-0.0117 0.0117,-0.0117 -0.33203,-0.30078 -0.5664,-0.39453 -0.97656,-0.39844 -0.35547,-0.004 -0.78515,0.19922 -1.20312,0.5625"
       style="fill:#002675;fill-opacity:1;fill-rule:nonzero;stroke:none" />
    <path
       id="path36"
       d="m 712.62109,395.57812 c 0.0195,0.0117 0.0547,0.0312 0.0664,0.008 0.0117,-0.0156 -0.008,-0.0312 -0.0273,-0.043 l -0.0469,-0.0274 -0.0195,0.0469 z m 0.0234,0.14454 -0.0312,-0.0195 -0.008,-0.10546 -0.0234,-0.0117 -0.043,0.0781 -0.0273,-0.0156 0.0937,-0.16797 0.0742,0.0391 c 0.0312,0.0195 0.0547,0.043 0.0312,0.0781 -0.0156,0.0351 -0.043,0.0351 -0.0742,0.0195 z m 0.10547,-0.0547 c 0.0352,-0.0703 0.008,-0.16016 -0.0625,-0.19531 -0.0742,-0.043 -0.16406,-0.0156 -0.20313,0.0547 -0.0391,0.0703 -0.008,0.16016 0.0625,0.19922 0.0664,0.0391 0.16016,0.0156 0.20313,-0.0586 m -0.29297,-0.14063 c 0.0352,-0.0859 0.14063,-0.1289 0.22656,-0.0898 0.0899,0.0391 0.12891,0.14453 0.0937,0.23047 -0.0391,0.0898 -0.14062,0.1289 -0.23047,0.0898 -0.0898,-0.0391 -0.1289,-0.14062 -0.0898,-0.23047"
       style="fill:#002675;fill-opacity:1;fill-rule:nonzero;stroke:none" />
    <path
       id="path38"
       d="m 685.85547,396.5 h -2.19141 l -2.19922,2.19922 V 396.5 h -2.1914 v 5.86328 h 2.1914 v -2.19531 l 2.19922,2.19531 h 2.92188 l -3.29297,-3.30078 z m 2.92578,0 h -2.19531 v 5.86328 h 5.85547 v -1.47656 h -3.66016 z m 10.24219,0 -1.09766,3.30078 -1.09766,-3.30078 h -3.66015 v 5.86328 h 2.19531 v -4.39844 l 1.46484,4.39844 h 2.19532 l 1.46484,-4.39844 v 4.39844 h 2.19141 V 396.5 Z m -9.51172,-3.30078 c 0.70703,0 1.28125,-0.57422 1.28125,-1.28125 0,-0.70703 -0.57422,-1.28516 -1.28125,-1.28516 -0.71094,0 -1.27735,0.57813 -1.27735,1.28516 0,0.70703 0.56641,1.28125 1.27735,1.28125 m 1.64453,-1.28125 c 0,0.70703 0.57422,1.28125 1.28516,1.28125 0.70312,0 1.27734,-0.57422 1.27734,-1.28125 0,-0.70703 -0.57422,-1.28516 -1.27734,-1.28516 -0.71094,0 -1.28516,0.57813 -1.28516,1.28516 m -3.28906,0 c 0,-0.70703 -0.57422,-1.28516 -1.28125,-1.28516 -0.70703,0 -1.28125,0.57813 -1.28125,1.28516 0,0.70703 0.57422,1.28125 1.28125,1.28125 0.70703,0 1.28125,-0.57422 1.28125,-1.28125 m -1.28125,3.11328 h 8.77734 v -1.46484 h -8.77734 z m 8.77734,-4.39844 c -0.70703,0 -1.28125,0.57813 -1.28125,1.28516 0,0.70703 0.57422,1.28125 1.28125,1.28125 0.70703,0 1.28125,-0.57422 1.28125,-1.28125 0,-0.70703 -0.57422,-1.28516 -1.28125,-1.28516 m -4.75391,0.1836 h 0.73047 v -0.73438 h 0.73047 v -0.73437 h -0.73047 v -0.73047 h -0.73047 v 0.73047 H 689.875 v 0.73437 h 0.73437 z m 0,0"
       style="fill:#00a1de;fill-opacity:1;fill-rule:nonzero;stroke:none" />
  </g>
</svg>
